<mxfile host="app.diagrams.net" agent="Mozilla/5.0 (Windows NT 10.0; Win64; x64) AppleWebKit/537.36 (KHTML, like Gecko) Chrome/129.0.0.0 Safari/537.36" version="24.7.6">
  <diagram name="Page-1" id="x53eU0FKoeX0dRVkSsE5">
    <mxGraphModel dx="925" dy="972" grid="0" gridSize="10" guides="1" tooltips="1" connect="1" arrows="1" fold="1" page="0" pageScale="1" pageWidth="850" pageHeight="1100" math="0" shadow="0">
      <root>
        <mxCell id="0" />
        <mxCell id="1" parent="0" />
        <mxCell id="_h2VLiLUrTGVx-Hj3dry-3" value="" style="edgeStyle=none;curved=1;rounded=0;orthogonalLoop=1;jettySize=auto;html=1;fontSize=12;startSize=8;endSize=8;" edge="1" parent="1" source="_h2VLiLUrTGVx-Hj3dry-1" target="_h2VLiLUrTGVx-Hj3dry-2">
          <mxGeometry relative="1" as="geometry" />
        </mxCell>
        <mxCell id="_h2VLiLUrTGVx-Hj3dry-5" value="" style="edgeStyle=none;curved=1;rounded=0;orthogonalLoop=1;jettySize=auto;html=1;fontSize=12;startSize=8;endSize=8;" edge="1" parent="1" source="_h2VLiLUrTGVx-Hj3dry-1" target="_h2VLiLUrTGVx-Hj3dry-4">
          <mxGeometry relative="1" as="geometry" />
        </mxCell>
        <mxCell id="_h2VLiLUrTGVx-Hj3dry-1" value="1" style="ellipse;whiteSpace=wrap;html=1;aspect=fixed;" vertex="1" parent="1">
          <mxGeometry x="179" y="43" width="48" height="48" as="geometry" />
        </mxCell>
        <mxCell id="_h2VLiLUrTGVx-Hj3dry-7" value="" style="edgeStyle=none;curved=1;rounded=0;orthogonalLoop=1;jettySize=auto;html=1;fontSize=12;startSize=8;endSize=8;" edge="1" parent="1" source="_h2VLiLUrTGVx-Hj3dry-2" target="_h2VLiLUrTGVx-Hj3dry-6">
          <mxGeometry relative="1" as="geometry" />
        </mxCell>
        <mxCell id="_h2VLiLUrTGVx-Hj3dry-2" value="2" style="ellipse;whiteSpace=wrap;html=1;aspect=fixed;" vertex="1" parent="1">
          <mxGeometry x="121" y="150" width="48" height="48" as="geometry" />
        </mxCell>
        <mxCell id="_h2VLiLUrTGVx-Hj3dry-9" value="" style="edgeStyle=none;curved=1;rounded=0;orthogonalLoop=1;jettySize=auto;html=1;fontSize=12;startSize=8;endSize=8;" edge="1" parent="1" source="_h2VLiLUrTGVx-Hj3dry-4" target="_h2VLiLUrTGVx-Hj3dry-8">
          <mxGeometry relative="1" as="geometry" />
        </mxCell>
        <mxCell id="_h2VLiLUrTGVx-Hj3dry-11" value="" style="edgeStyle=none;curved=1;rounded=0;orthogonalLoop=1;jettySize=auto;html=1;fontSize=12;startSize=8;endSize=8;" edge="1" parent="1" source="_h2VLiLUrTGVx-Hj3dry-4" target="_h2VLiLUrTGVx-Hj3dry-10">
          <mxGeometry relative="1" as="geometry" />
        </mxCell>
        <mxCell id="_h2VLiLUrTGVx-Hj3dry-4" value="6" style="ellipse;whiteSpace=wrap;html=1;aspect=fixed;" vertex="1" parent="1">
          <mxGeometry x="246" y="150" width="48" height="48" as="geometry" />
        </mxCell>
        <mxCell id="_h2VLiLUrTGVx-Hj3dry-23" value="" style="edgeStyle=none;curved=1;rounded=0;orthogonalLoop=1;jettySize=auto;html=1;fontSize=12;startSize=8;endSize=8;" edge="1" parent="1" source="_h2VLiLUrTGVx-Hj3dry-6" target="_h2VLiLUrTGVx-Hj3dry-22">
          <mxGeometry relative="1" as="geometry" />
        </mxCell>
        <mxCell id="_h2VLiLUrTGVx-Hj3dry-27" value="" style="edgeStyle=none;curved=1;rounded=0;orthogonalLoop=1;jettySize=auto;html=1;fontSize=12;startSize=8;endSize=8;" edge="1" parent="1" source="_h2VLiLUrTGVx-Hj3dry-6" target="_h2VLiLUrTGVx-Hj3dry-26">
          <mxGeometry relative="1" as="geometry" />
        </mxCell>
        <mxCell id="_h2VLiLUrTGVx-Hj3dry-6" value="3" style="ellipse;whiteSpace=wrap;html=1;aspect=fixed;" vertex="1" parent="1">
          <mxGeometry x="121" y="318" width="48" height="48" as="geometry" />
        </mxCell>
        <mxCell id="_h2VLiLUrTGVx-Hj3dry-8" value="4" style="ellipse;whiteSpace=wrap;html=1;aspect=fixed;" vertex="1" parent="1">
          <mxGeometry x="246" y="318" width="48" height="48" as="geometry" />
        </mxCell>
        <mxCell id="_h2VLiLUrTGVx-Hj3dry-10" value="5" style="ellipse;whiteSpace=wrap;html=1;aspect=fixed;" vertex="1" parent="1">
          <mxGeometry x="353" y="318" width="48" height="48" as="geometry" />
        </mxCell>
        <mxCell id="_h2VLiLUrTGVx-Hj3dry-14" value="" style="endArrow=block;dashed=1;endFill=0;endSize=12;html=1;rounded=0;fontSize=12;curved=1;entryX=1;entryY=0;entryDx=0;entryDy=0;" edge="1" parent="1" target="_h2VLiLUrTGVx-Hj3dry-6">
          <mxGeometry width="160" relative="1" as="geometry">
            <mxPoint x="246" y="185" as="sourcePoint" />
            <mxPoint x="406" y="185" as="targetPoint" />
            <Array as="points">
              <mxPoint x="210" y="276" />
            </Array>
          </mxGeometry>
        </mxCell>
        <mxCell id="_h2VLiLUrTGVx-Hj3dry-15" value="" style="shape=stencil(fZbdcgIhDIWfZm8zQAg/17Z9j85U606tdqz9e/tmZ0c0uJ47xP0I5JwEBl59bp8/1kNwn6fj4W39M76ctgM/DCGM++36OJ50NPDjwKvN4bh+PR6+9i/z74/n6ctp9H74nlb4nbmSKZeJCu5vngmZ6jzzNAO7cX8FVKEsBuBKrgKg9oAE8gkCbLeUhEoEQKSUDZDLeWYRKIl8MEDRmHwfyBrBG6Amyu4+kDxxMoB3jhwgYu7TVAsVkFcWCs4CTBEoF4RctKeOxHIf8IXYpikHikAIf+MNUW94AGSSaoAoFIE3AlOyeWU+p2E5S9yfQZcQILVuQOwZdJNoS9Ls3wA5u2XZTIHECqeJ9kDpSaauRiNVcAY1QhdBzeLBli5WazpkSsBLV25uRaqWRyFawTQzRRIQYirJzq5atkBqLfouwqUxLBepthWb10vrWZY6UOAeyKCCtDV625mm9gmUC4Wc3VLJMMIE1BsA2FW9JraVlQB7n3c9oMKhCLEvIM1zBPZ25/umNQ1tVEC2G+fFCC8g398O2hNQuQlVu752DBfA+q0ptnqO5JFmeuIuo9DY7KjY71UxdJV4EntifPWorW++R/dC4t7V3DlIB5cHx2bc7eb3yvX//QNFp+bHDT/+Aw==);lineShape=1;strokeColor=default;" vertex="1" parent="1">
          <mxGeometry x="217.46799746356942" y="237.6753002514879" width="4.672539772115442" height="4.665236216357698" as="geometry" />
        </mxCell>
        <mxCell id="_h2VLiLUrTGVx-Hj3dry-16" value="" style="shape=stencil(fZbdcgIhDIWfZm8zQAg/17Z9j85U606tdqz9e/tmZ0c0uJ47xP0I5JwEBl59bp8/1kNwn6fj4W39M76ctgM/DCGM++36OJ50NPDjwKvN4bh+PR6+9i/z74/n6ctp9H74nlb4nbmSKZeJCu5vngmZ6jzzNAO7cX8FVKEsBuBKrgKg9oAE8gkCbLeUhEoEQKSUDZDLeWYRKIl8MEDRmHwfyBrBG6Amyu4+kDxxMoB3jhwgYu7TVAsVkFcWCs4CTBEoF4RctKeOxHIf8IXYpikHikAIf+MNUW94AGSSaoAoFIE3AlOyeWU+p2E5S9yfQZcQILVuQOwZdJNoS9Ls3wA5u2XZTIHECqeJ9kDpSaauRiNVcAY1QhdBzeLBli5WazpkSsBLV25uRaqWRyFawTQzRRIQYirJzq5atkBqLfouwqUxLBepthWb10vrWZY6UOAeyKCCtDV625mm9gmUC4Wc3VLJMMIE1BsA2FW9JraVlQB7n3c9oMKhCLEvIM1zBPZ25/umNQ1tVEC2G+fFCC8g398O2hNQuQlVu752DBfA+q0ptnqO5JFmeuIuo9DY7KjY71UxdJV4EntifPWorW++R/dC4t7V3DlIB5cHx2bc7eb3yvX//QNFp+bHDT/+Aw==);lineShape=1;strokeColor=default;" vertex="1" parent="1">
          <mxGeometry x="217.46799746356942" y="237.6753002514879" width="4.672539772115442" height="4.665236216357698" as="geometry" />
        </mxCell>
        <mxCell id="_h2VLiLUrTGVx-Hj3dry-22" value="7" style="ellipse;whiteSpace=wrap;html=1;aspect=fixed;" vertex="1" parent="1">
          <mxGeometry x="47" y="418" width="48" height="48" as="geometry" />
        </mxCell>
        <mxCell id="_h2VLiLUrTGVx-Hj3dry-26" value="8" style="ellipse;whiteSpace=wrap;html=1;aspect=fixed;" vertex="1" parent="1">
          <mxGeometry x="174.14000000000001" y="420" width="48" height="48" as="geometry" />
        </mxCell>
        <mxCell id="_h2VLiLUrTGVx-Hj3dry-29" value="Use" style="endArrow=open;endSize=12;dashed=1;html=1;rounded=0;fontSize=12;curved=1;exitX=0;exitY=1;exitDx=0;exitDy=0;entryX=0.95;entryY=0.337;entryDx=0;entryDy=0;entryPerimeter=0;" edge="1" parent="1" source="_h2VLiLUrTGVx-Hj3dry-8" target="_h2VLiLUrTGVx-Hj3dry-22">
          <mxGeometry x="0.0023" y="-449" width="160" relative="1" as="geometry">
            <mxPoint x="119" y="237" as="sourcePoint" />
            <mxPoint x="279" y="237" as="targetPoint" />
            <mxPoint as="offset" />
          </mxGeometry>
        </mxCell>
        <mxCell id="_h2VLiLUrTGVx-Hj3dry-30" value="Use" style="endArrow=open;endSize=12;dashed=1;html=1;rounded=0;fontSize=12;curved=1;exitX=0;exitY=1;exitDx=0;exitDy=0;entryX=1;entryY=0.5;entryDx=0;entryDy=0;" edge="1" parent="1" source="_h2VLiLUrTGVx-Hj3dry-10" target="_h2VLiLUrTGVx-Hj3dry-26">
          <mxGeometry x="0.7798" y="-504" width="160" relative="1" as="geometry">
            <mxPoint x="263" y="369" as="sourcePoint" />
            <mxPoint x="103" y="444" as="targetPoint" />
            <mxPoint as="offset" />
          </mxGeometry>
        </mxCell>
      </root>
    </mxGraphModel>
  </diagram>
</mxfile>
